<?xml version="1.0" encoding="UTF-8"?>
<!DOCTYPE svg PUBLIC "-//W3C//DTD SVG 1.1//EN" "http://www.w3.org/Graphics/SVG/1.1/DTD/svg11.dtd">
<svg xmlns="http://www.w3.org/2000/svg" version="1.1" width="500px" height="500px" style="shape-rendering:geometricPrecision; text-rendering:geometricPrecision; image-rendering:optimizeQuality; fill-rule:evenodd; clip-rule:evenodd" xmlns:xlink="http://www.w3.org/1999/xlink">
<g><path style="opacity:1" fill="#1976d1" d="M -0.5,-0.5 C 166.167,-0.5 332.833,-0.5 499.5,-0.5C 499.5,166.167 499.5,332.833 499.5,499.5C 332.833,499.5 166.167,499.5 -0.5,499.5C -0.5,332.833 -0.5,166.167 -0.5,-0.5 Z"/></g>
<g><path style="opacity:1" fill="#d7d7d8" d="M 134.5,281.5 C 135.289,281.217 135.956,280.717 136.5,280C 109.833,279.333 83.1667,279.333 56.5,280C 57.0442,280.717 57.7109,281.217 58.5,281.5C 62.9713,287.646 61.9713,292.813 55.5,297C 44.831,298.662 40.6643,294.162 43,283.5C 44.1667,282.333 45.3333,281.167 46.5,280C 42.1667,279.667 37.8333,279.333 33.5,279C 30.582,275.528 30.9154,272.528 34.5,270C 70.5,269.667 106.5,269.333 142.5,269C 143.804,268.196 144.471,267.029 144.5,265.5C 139.316,258.149 132.983,251.983 125.5,247C 96.7903,244.817 68.1236,242.484 39.5,240C 38.2986,239.097 37.4652,237.931 37,236.5C 34.1153,216.542 32.1153,196.542 31,176.5C 31.3826,175.944 31.8826,175.611 32.5,175.5C 35.8333,175.5 39.1667,175.5 42.5,175.5C 42.2627,176.791 42.596,177.791 43.5,178.5C 44.1828,182.02 46.1828,184.52 49.5,186C 52.0991,186.769 54.5991,186.602 57,185.5C 61.3771,203.274 71.5437,207.774 87.5,199C 94.0508,190.568 94.0508,182.235 87.5,174C 108.816,172.871 130.149,172.204 151.5,172C 155.191,163.263 158.691,154.43 162,145.5C 162.792,143.413 163.959,141.579 165.5,140C 174.492,137.294 183.659,135.46 193,134.5C 198.257,134.089 200.257,136.422 199,141.5C 198.097,142.701 196.931,143.535 195.5,144C 189.5,145 183.5,146 177.5,147C 175.112,147.303 172.945,148.137 171,149.5C 159.461,179.952 147.627,210.285 135.5,240.5C 140.818,246.319 146.318,251.985 152,257.5C 156.299,266.604 154.132,273.77 145.5,279C 151.484,282.363 152.984,287.197 150,293.5C 146.604,297.203 142.437,298.369 137.5,297C 132.189,292.65 131.189,287.483 134.5,281.5 Z"/></g>
<g><path style="opacity:1" fill="#9aa1aa" d="M 58.5,137.5 C 64.4877,137.664 65.821,140.164 62.5,145C 56.4034,145.147 55.0701,142.647 58.5,137.5 Z"/></g>
<g><path style="opacity:1" fill="#a3a5a6" d="M 65.5,149.5 C 74.1584,148.327 77.9918,151.994 77,160.5C 74.4586,165.069 70.6253,166.569 65.5,165C 60.2268,159.743 60.2268,154.577 65.5,149.5 Z"/></g>
<g><path style="opacity:1" fill="#9ca2a9" d="M 49.5,152.5 C 53.485,152.629 54.8183,154.463 53.5,158C 48.7282,158.81 47.3948,156.977 49.5,152.5 Z"/></g>
<g><path style="opacity:1" fill="#a0a3a8" d="M 51.5,169.5 C 56.6509,169.814 59.1509,172.481 59,177.5C 57.1792,180.991 54.3458,182.157 50.5,181C 46.3759,176.695 46.7092,172.862 51.5,169.5 Z"/></g>
<g><path style="opacity:1" fill="#a3a4a6" d="M 71.5,173.5 C 84.5499,173.705 89.3833,180.038 86,192.5C 79.2644,199.971 72.2644,200.304 65,193.5C 60.5886,184.663 62.7552,177.996 71.5,173.5 Z"/></g>
<g><path style="opacity:1" fill="#99b6d6" d="M 32.5,175.5 C 35.9619,174.518 39.6286,174.185 43.5,174.5C 43.5,175.833 43.5,177.167 43.5,178.5C 42.596,177.791 42.2627,176.791 42.5,175.5C 39.1667,175.5 35.8333,175.5 32.5,175.5 Z"/></g>
<g><path style="opacity:1" fill="#52555a" d="M 180.5,222.5 C 191.948,220.471 199.782,224.804 204,235.5C 207.007,248.244 202.841,257.577 191.5,263.5C 194.511,269.175 199.177,272.675 205.5,274C 195.57,274.704 187.57,271.037 181.5,263C 174.93,260.762 170.763,256.262 169,249.5C 166.361,237.546 170.194,228.546 180.5,222.5 Z"/></g>
<g><path style="opacity:1" fill="#51565d" d="M 341.5,224.5 C 347.653,223.347 353.986,223.18 360.5,224C 370.853,225.87 374.02,231.703 370,241.5C 365.085,246.038 359.251,247.705 352.5,246.5C 352.5,251.833 352.5,257.167 352.5,262.5C 350.5,262.5 348.5,262.5 346.5,262.5C 346.667,250.495 346.5,238.495 346,226.5C 344.89,224.963 343.39,224.297 341.5,224.5 Z"/></g>
<g><path style="opacity:1" fill="#1b75cf" d="M 183.5,224.5 C 191.029,224.009 195.862,227.342 198,234.5C 198.87,240.917 198.536,247.251 197,253.5C 192.265,262.345 185.931,263.679 178,257.5C 173.417,247.792 173.417,238.126 178,228.5C 179.812,227.023 181.645,225.69 183.5,224.5 Z"/></g>
<g><path style="opacity:1" fill="#505761" d="M 256.5,224.5 C 259.321,224.316 260.988,225.649 261.5,228.5C 259.968,231.75 258.134,232.084 256,229.5C 255.36,227.735 255.527,226.068 256.5,224.5 Z"/></g>
<g><path style="opacity:1" fill="#505761" d="M 384.5,224.5 C 387.321,224.316 388.988,225.649 389.5,228.5C 387.968,231.75 386.134,232.084 384,229.5C 383.36,227.735 383.527,226.068 384.5,224.5 Z"/></g>
<g><path style="opacity:1" fill="#1b75cf" d="M 352.5,225.5 C 362.06,224.889 366.226,229.223 365,238.5C 362.261,243.257 358.094,245.257 352.5,244.5C 352.5,238.167 352.5,231.833 352.5,225.5 Z"/></g>
<g><path style="opacity:1" fill="#52555a" d="M 281.5,234.5 C 286.267,234.191 290.934,234.691 295.5,236C 297.464,238.312 297.797,240.812 296.5,243.5C 293.415,235.956 288.581,234.623 282,239.5C 278.063,246.969 278.896,253.803 284.5,260C 289.437,261.369 293.604,260.203 297,256.5C 296.74,259.117 295.24,260.95 292.5,262C 277.744,263.9 271.91,257.4 275,242.5C 276.305,239.039 278.471,236.372 281.5,234.5 Z"/></g>
<g><path style="opacity:1" fill="#51565d" d="M 409.5,234.5 C 414.536,234.062 419.369,234.728 424,236.5C 424.667,238.833 424.667,241.167 424,243.5C 422.328,237.493 418.495,235.327 412.5,237C 407.85,241.574 406.35,247.074 408,253.5C 409.846,259.995 414.012,262.162 420.5,260C 421.5,259 422.5,258 423.5,257C 424.332,256.312 424.998,256.479 425.5,257.5C 418.383,265.431 411.217,265.431 404,257.5C 399.444,248.149 401.277,240.482 409.5,234.5 Z"/></g>
<g><path style="opacity:1" fill="#51555a" d="M 213.5,234.5 C 217.287,233.814 220.454,234.814 223,237.5C 223.333,243.833 223.667,250.167 224,256.5C 227.085,261.508 230.752,261.842 235,257.5C 235.5,249.841 235.666,242.174 235.5,234.5C 237.167,234.5 238.833,234.5 240.5,234.5C 240.5,243.833 240.5,253.167 240.5,262.5C 238.516,262.617 236.85,261.95 235.5,260.5C 229.859,263.466 224.525,263.133 219.5,259.5C 219,258.5 218.5,257.5 218,256.5C 217.667,250.167 217.333,243.833 217,237.5C 215.271,237.026 214.105,236.026 213.5,234.5 Z"/></g>
<g><path style="opacity:1" fill="#525558" d="M 250.5,234.5 C 253.187,234.336 255.854,234.503 258.5,235C 259.667,235.5 260.5,236.333 261,237.5C 261.5,245.827 261.666,254.16 261.5,262.5C 259.833,262.5 258.167,262.5 256.5,262.5C 256.666,254.493 256.5,246.493 256,238.5C 253.869,237.385 252.035,236.052 250.5,234.5 Z"/></g>
<g><path style="opacity:1" fill="#525558" d="M 305.5,224.5 C 308.796,222.973 311.962,223.307 315,225.5C 315.333,232.833 315.667,240.167 316,247.5C 319.167,243.667 322.333,239.833 325.5,236C 327.769,234.442 330.102,234.276 332.5,235.5C 327.186,238.077 323.186,242.077 320.5,247.5C 323.243,250.654 325.743,253.988 328,257.5C 329.731,259.617 331.898,261.117 334.5,262C 331.833,262.667 329.167,262.667 326.5,262C 322.405,258.296 318.905,254.129 316,249.5C 315.501,253.821 315.334,258.154 315.5,262.5C 313.833,262.5 312.167,262.5 310.5,262.5C 310.667,250.495 310.5,238.495 310,226.5C 308.89,224.963 307.39,224.297 305.5,224.5 Z"/></g>
<g><path style="opacity:1" fill="#525558" d="M 378.5,234.5 C 381.187,234.336 383.854,234.503 386.5,235C 387.667,235.5 388.5,236.333 389,237.5C 389.5,245.827 389.666,254.16 389.5,262.5C 387.833,262.5 386.167,262.5 384.5,262.5C 384.666,254.493 384.5,246.493 384,238.5C 381.869,237.385 380.035,236.052 378.5,234.5 Z"/></g>
<g><path style="opacity:1" fill="#50575f" d="M 432.5,224.5 C 435.565,223.182 438.731,223.182 442,224.5C 443.267,232.062 443.934,239.729 444,247.5C 447.105,241.392 451.771,237.059 458,234.5C 458.833,234.833 459.667,235.167 460.5,235.5C 455.046,237.787 451.046,241.62 448.5,247C 451.904,252.81 456.237,257.81 461.5,262C 458.366,262.79 455.366,262.457 452.5,261C 449.301,257.434 446.467,253.6 444,249.5C 443.501,253.821 443.334,258.154 443.5,262.5C 441.5,262.5 439.5,262.5 437.5,262.5C 437.832,250.149 437.499,237.815 436.5,225.5C 435.264,224.754 433.93,224.421 432.5,224.5 Z"/></g>
<g><path style="opacity:1" fill="#4a8fd4" d="M 134.5,281.5 C 109.167,280.167 83.8333,280.167 58.5,281.5C 57.7109,281.217 57.0442,280.717 56.5,280C 83.1667,279.333 109.833,279.333 136.5,280C 135.956,280.717 135.289,281.217 134.5,281.5 Z"/></g>
<g><path style="opacity:1" fill="#ccd2d8" d="M 200.5,288.5 C 201.388,286.967 201.888,284.634 202,281.5C 202.499,285.486 202.666,289.486 202.5,293.5C 199.578,291.406 197.078,288.739 195,285.5C 194.818,288.226 194.318,290.893 193.5,293.5C 192.167,289.167 192.167,284.833 193.5,280.5C 195.856,283.186 198.189,285.853 200.5,288.5 Z"/></g>
<g><path style="opacity:1" fill="#94b4d6" d="M 202.5,293.5 C 202.666,289.486 202.499,285.486 202,281.5C 201.888,284.634 201.388,286.967 200.5,288.5C 200.5,285.833 200.5,283.167 200.5,280.5C 201.5,280.5 202.5,280.5 203.5,280.5C 203.818,285.032 203.485,289.366 202.5,293.5 Z"/></g>
<g><path style="opacity:1" fill="#d7d8d9" d="M 214.5,291.5 C 216.288,291.215 217.955,291.548 219.5,292.5C 217.257,293.474 214.924,293.808 212.5,293.5C 212.334,289.486 212.501,285.486 213,281.5C 213.179,285.025 213.679,288.359 214.5,291.5 Z"/></g>
<g><path style="opacity:1" fill="#8cb1d5" d="M 214.5,291.5 C 213.679,288.359 213.179,285.025 213,281.5C 212.501,285.486 212.334,289.486 212.5,293.5C 211.515,289.366 211.182,285.032 211.5,280.5C 212.5,280.5 213.5,280.5 214.5,280.5C 214.5,284.167 214.5,287.833 214.5,291.5 Z"/></g>
<g><path style="opacity:1" fill="#c0ccd8" d="M 227.5,280.5 C 228.8,282.223 229.467,284.39 229.5,287C 229.167,289.167 228.833,291.333 228.5,293.5C 227.508,289.217 227.174,284.884 227.5,280.5 Z"/></g>
<g><path style="opacity:1" fill="#ccd2d8" d="M 246.5,288.5 C 247.388,286.967 247.888,284.634 248,281.5C 248.499,285.486 248.666,289.486 248.5,293.5C 245.578,291.406 243.078,288.739 241,285.5C 240.818,288.226 240.318,290.893 239.5,293.5C 238.167,289.167 238.167,284.833 239.5,280.5C 241.856,283.186 244.189,285.853 246.5,288.5 Z"/></g>
<g><path style="opacity:1" fill="#94b4d6" d="M 248.5,293.5 C 248.666,289.486 248.499,285.486 248,281.5C 247.888,284.634 247.388,286.967 246.5,288.5C 246.5,285.833 246.5,283.167 246.5,280.5C 247.5,280.5 248.5,280.5 249.5,280.5C 249.818,285.032 249.485,289.366 248.5,293.5 Z"/></g>
<g><path style="opacity:1" fill="#93b4d6" d="M 266.5,282.5 C 264.052,281.527 261.385,281.194 258.5,281.5C 258.5,285.5 258.5,289.5 258.5,293.5C 257.515,289.366 257.182,285.032 257.5,280.5C 260.898,280.18 264.232,280.513 267.5,281.5C 267.376,282.107 267.043,282.44 266.5,282.5 Z"/></g>
<g><path style="opacity:1" fill="#c9d0d8" d="M 266.5,282.5 C 264.5,282.5 262.5,282.5 260.5,282.5C 259.566,283.568 259.232,284.901 259.5,286.5C 261.833,286.5 264.167,286.5 266.5,286.5C 265.082,288.308 263.082,288.975 260.5,288.5C 260.5,289.5 260.5,290.5 260.5,291.5C 262.924,291.192 265.257,291.526 267.5,292.5C 264.572,293.484 261.572,293.817 258.5,293.5C 258.5,289.5 258.5,285.5 258.5,281.5C 261.385,281.194 264.052,281.527 266.5,282.5 Z"/></g>
<g><path style="opacity:1" fill="#c6cfd8" d="M 287.5,280.5 C 289.977,280.051 291.977,280.717 293.5,282.5C 291.674,282.92 289.674,282.92 287.5,282.5C 287.809,285.346 289.475,286.846 292.5,287C 295.498,290.818 294.498,292.984 289.5,293.5C 287.519,293.563 285.852,292.896 284.5,291.5C 286.718,290.943 289.051,290.943 291.5,291.5C 291.5,290.5 291.5,289.5 291.5,288.5C 285.42,288.014 284.087,285.348 287.5,280.5 Z"/></g>
<g><path style="opacity:1" fill="#d2d5d8" d="M 322.5,280.5 C 324.414,283.684 325.08,287.351 324.5,291.5C 326.604,291.201 328.604,291.534 330.5,292.5C 327.914,293.48 325.247,293.813 322.5,293.5C 322.5,289.167 322.5,284.833 322.5,280.5 Z"/></g>
<g><path style="opacity:1" fill="#93b4d6" d="M 347.5,290.5 C 347.665,287.482 347.498,284.482 347,281.5C 346.817,284.365 346.317,287.031 345.5,289.5C 345.5,286.5 345.5,283.5 345.5,280.5C 346.5,280.5 347.5,280.5 348.5,280.5C 348.813,284.042 348.479,287.375 347.5,290.5 Z"/></g>
<g><path style="opacity:1" fill="#cfd3d8" d="M 355.5,280.5 C 358.898,280.18 362.232,280.513 365.5,281.5C 364.311,282.429 362.978,282.762 361.5,282.5C 360.833,297.167 360.167,297.167 359.5,282.5C 357.517,282.843 356.183,282.176 355.5,280.5 Z"/></g>
<g><path style="opacity:1" fill="#cdd3d8" d="M 372.5,280.5 C 373.8,282.223 374.467,284.39 374.5,287C 374.167,289.167 373.833,291.333 373.5,293.5C 372.508,289.217 372.174,284.884 372.5,280.5 Z"/></g>
<g><path style="opacity:1" fill="#8fb2d6" d="M 406.5,281.5 C 404.577,285.029 403.911,289.029 404.5,293.5C 403.515,289.366 403.182,285.032 403.5,280.5C 404.791,280.263 405.791,280.596 406.5,281.5 Z"/></g>
<g><path style="opacity:1" fill="#c9d0d8" d="M 406.5,281.5 C 408.412,283.657 410.079,285.991 411.5,288.5C 411.56,289.043 411.893,289.376 412.5,289.5C 413.318,286.893 413.818,284.226 414,281.5C 414.499,285.486 414.666,289.486 414.5,293.5C 412.983,293.489 411.816,292.823 411,291.5C 409.667,289.5 408.333,287.5 407,285.5C 407.053,288.675 406.22,291.342 404.5,293.5C 403.911,289.029 404.577,285.029 406.5,281.5 Z"/></g>
<g><path style="opacity:1" fill="#82abd5" d="M 414.5,293.5 C 414.666,289.486 414.499,285.486 414,281.5C 413.818,284.226 413.318,286.893 412.5,289.5C 411.893,289.376 411.56,289.043 411.5,288.5C 412.473,286.052 412.806,283.385 412.5,280.5C 413.5,280.5 414.5,280.5 415.5,280.5C 415.818,285.032 415.485,289.366 414.5,293.5 Z"/></g>
<g><path style="opacity:1" fill="#2c7cd2" d="M 48.5,282.5 C 56.7443,282.228 59.0776,285.728 55.5,293C 50.0226,295.595 46.6892,293.928 45.5,288C 45.8627,285.808 46.8627,283.974 48.5,282.5 Z"/></g>
<g><path style="opacity:1" fill="#347fd2" d="M 138.5,282.5 C 146,281.166 148.833,284.166 147,291.5C 143.021,295.644 139.355,295.31 136,290.5C 135.388,287.389 136.221,284.723 138.5,282.5 Z"/></g>
<g><path style="opacity:1" fill="#becad8" d="M 174.5,280.5 C 183.049,280.521 185.716,284.354 182.5,292C 174.901,295.05 171.067,292.55 171,284.5C 172.376,283.295 173.542,281.962 174.5,280.5 Z"/></g>
<g><path style="opacity:1" fill="#2579d2" d="M 175.5,282.5 C 181.191,282.548 182.857,285.215 180.5,290.5C 173.409,291.531 171.742,288.864 175.5,282.5 Z"/></g>
<g><path style="opacity:1" fill="#c3cdd8" d="M 386.5,280.5 C 393.169,280.005 396.336,283.005 396,289.5C 391.571,294.808 387.237,294.808 383,289.5C 382.333,287.833 382.333,286.167 383,284.5C 384.376,283.295 385.542,281.962 386.5,280.5 Z"/></g>
<g><path style="opacity:1" fill="#2a7bd2" d="M 387.5,282.5 C 393.643,283.026 394.976,285.86 391.5,291C 384.344,290.856 383.011,288.023 387.5,282.5 Z"/></g>
<g><path style="opacity:1" fill="#c8cfd8" d="M 49.5,285.5 C 53.1378,284.737 54.6378,286.07 54,289.5C 49.4155,291.413 47.9155,290.079 49.5,285.5 Z"/></g>
<g><path style="opacity:1" fill="#d1d4d8" d="M 140.5,285.5 C 143.91,285.384 145.244,287.05 144.5,290.5C 142.833,290.5 141.167,290.5 139.5,290.5C 139.366,288.708 139.699,287.042 140.5,285.5 Z"/></g>
<g><path style="opacity:1" fill="#74a3d5" d="M 260.5,282.5 C 260.5,283.5 260.5,284.5 260.5,285.5C 262.735,285.205 264.735,285.539 266.5,286.5C 264.167,286.5 261.833,286.5 259.5,286.5C 259.232,284.901 259.566,283.568 260.5,282.5 Z"/></g>
<g><path style="opacity:1" fill="#c9d0d8" d="M 305.5,280.5 C 313.867,280.739 316.2,284.572 312.5,292C 304.246,295.081 300.746,292.248 302,283.5C 303.145,282.364 304.312,281.364 305.5,280.5 Z"/></g>
<g><path style="opacity:1" fill="#2e7cd2" d="M 305.5,282.5 C 312.02,282.717 313.687,285.551 310.5,291C 303.416,291.475 301.749,288.642 305.5,282.5 Z"/></g>
<g><path style="opacity:1" fill="#cbd1d8" d="M 345.5,289.5 C 346.317,287.031 346.817,284.365 347,281.5C 347.498,284.482 347.665,287.482 347.5,290.5C 344.745,294.04 341.579,294.373 338,291.5C 337.175,287.789 337.341,284.122 338.5,280.5C 339.324,283.785 339.824,287.118 340,290.5C 342.235,291.98 344.068,291.647 345.5,289.5 Z"/></g>
</svg>
